<?xml version="1.0" encoding="utf-8"?>
<!-- Generator: Adobe Illustrator 27.0.0, SVG Export Plug-In . SVG Version: 6.00 Build 0)  -->
<svg version="1.1" id="RAINY" xmlns="http://www.w3.org/2000/svg" xmlns:xlink="http://www.w3.org/1999/xlink" x="0px" y="0px"
	 viewBox="0 0 64 64" style="enable-background:new 0 0 64 64;" xml:space="preserve">
<style type="text/css">
	.st0{fill:#89C4F4;}
	.st1{fill:#6BB9F0;}
	.st2{fill:#CCF1FE;}
</style>
<g id="day_bg_4_">
	<g>
		<circle class="st0" cx="32" cy="32" r="32"/>
	</g>
	<g>
		<path class="st1" d="M32,64c17.7,0,32-14.3,32-32S49.7,0,32,0V64z"/>
	</g>
</g>
<path class="st2" d="M31.9,52.2c-0.2,0.6-0.7,0.9-1.3,0.8l0,0c-0.6-0.2-0.9-0.7-0.8-1.3l2.2-8.2c0.2-0.6,0.7-0.9,1.3-0.8l0,0
	c0.6,0.1,0.9,0.7,0.8,1.3L31.9,52.2z M42.7,44c0.2-0.6-0.2-1.2-0.8-1.3l0,0c-0.6-0.1-1.2,0.2-1.3,0.8l-2.2,8.2
	c-0.2,0.6,0.2,1.2,0.8,1.3l0,0c0.6,0.2,1.2-0.2,1.3-0.8L42.7,44z M25.5,44c0.2-0.6-0.2-1.2-0.8-1.3l0,0c-0.6-0.1-1.2,0.2-1.3,0.8
	l-2.2,8.2c-0.2,0.6,0.2,1.2,0.8,1.3l0,0c0.6,0.2,1.2-0.2,1.3-0.8L25.5,44z"/>
<path class="st2" d="M45.4,35.4c-0.2,0.6-0.7,0.9-1.3,0.8l0,0c-0.6-0.2-0.9-0.7-0.8-1.3l2.2-8.2c0.2-0.6,0.7-0.9,1.3-0.8l0,0
	c0.6,0.1,0.9,0.7,0.8,1.3L45.4,35.4z M56.3,27.2c0.2-0.6-0.2-1.2-0.8-1.3l0,0c-0.6-0.1-1.2,0.2-1.3,0.8L52,34.9
	c-0.2,0.6,0.2,1.2,0.8,1.3l0,0c0.6,0.2,1.2-0.2,1.3-0.8L56.3,27.2z M39,27.2c0.2-0.6-0.2-1.2-0.8-1.3l0,0c-0.6-0.1-1.2,0.2-1.3,0.8
	l-2.2,8.2c-0.2,0.6,0.2,1.2,0.8,1.3l0,0c0.6,0.2,1.2-0.2,1.3-0.8L39,27.2z"/>
<path class="st2" d="M19,35.4c-0.2,0.6-0.7,0.9-1.3,0.8l0,0c-0.6-0.2-0.9-0.7-0.8-1.3l2.2-8.2c0.2-0.6,0.7-0.9,1.3-0.8l0,0
	c0.6,0.1,0.9,0.7,0.8,1.3L19,35.4z M29.8,27.2c0.2-0.6-0.2-1.2-0.8-1.3l0,0c-0.6-0.1-1.2,0.2-1.3,0.8l-2.2,8.2
	c-0.2,0.6,0.2,1.2,0.8,1.3l0,0c0.6,0.2,1.2-0.2,1.3-0.8L29.8,27.2z M12.6,27.2c0.2-0.6-0.2-1.2-0.8-1.3l0,0
	c-0.6-0.1-1.2,0.2-1.3,0.8l-2.2,8.2c-0.2,0.6,0.2,1.2,0.8,1.3l0,0c0.6,0.2,1.2-0.2,1.3-0.8L12.6,27.2z"/>
</svg>
