<?xml version="1.0" encoding="utf-8"?>
<!-- Generator: Adobe Illustrator 27.0.0, SVG Export Plug-In . SVG Version: 6.00 Build 0)  -->
<svg version="1.1" id="SUNNY" xmlns="http://www.w3.org/2000/svg" xmlns:xlink="http://www.w3.org/1999/xlink" x="0px" y="0px"
	 viewBox="0 0 64 64" style="enable-background:new 0 0 64 64;" xml:space="preserve">
<style type="text/css">
	.st0{fill:#89C4F4;}
	.st1{fill:#7C8489;}
	.st2{filter:url(#Adobe_OpacityMaskFilter);}
	.st3{fill:url(#SVGID_1_);}
	.st4{opacity:0.2;mask:url(#_x3C_Tracciato_x3E__00000050645729394805005480000000494606419661321391_);}
	.st5{fill:#F5D76E;}
</style>
<g>
	<g id="day_bg_6_">
		<g>
			<circle class="st0" cx="32" cy="32" r="32"/>
		</g>
		<g>
			<path class="st1" d="M13.1,57.8c14.3,10.4,34.3,7.3,44.7-6.9s7.3-34.3-6.9-44.7L13.1,57.8z"/>
		</g>
	</g>
	<defs>
		<filter id="Adobe_OpacityMaskFilter" filterUnits="userSpaceOnUse" x="12.5" y="12.5" width="42.8" height="51.5">
			<feColorMatrix  type="matrix" values="1 0 0 0 0  0 1 0 0 0  0 0 1 0 0  0 0 0 1 0"/>
		</filter>
	</defs>
	
		<mask maskUnits="userSpaceOnUse" x="12.5" y="12.5" width="42.8" height="51.5" id="_x3C_Tracciato_x3E__00000050645729394805005480000000494606419661321391_">
		<g class="st2">
			<g>
				
					<radialGradient id="SVGID_1_" cx="70.7805" cy="-527.1094" r="37.333" gradientTransform="matrix(0.8068 0.5908 0.5908 -0.8068 285.6025 -439.5792)" gradientUnits="userSpaceOnUse">
					<stop  offset="0" style="stop-color:#FFFFFF"/>
					<stop  offset="0.2394" style="stop-color:#B2B2B2"/>
					<stop  offset="0.496" style="stop-color:#676767"/>
					<stop  offset="0.7089" style="stop-color:#2F2F2F"/>
					<stop  offset="0.8666" style="stop-color:#0D0D0D"/>
					<stop  offset="0.9519" style="stop-color:#000000"/>
				</radialGradient>
				<circle class="st3" cx="31.3" cy="27.5" r="37.3"/>
			</g>
		</g>
	</mask>
	<g id="_x3C_Tracciato_x3E_" class="st4">
		<path d="M16.5,60L16.5,60l-0.2-0.1l0.1-0.1l-0.2-0.1l0.1-0.1l-0.2-0.1l0.1-0.1l-0.2-0.1l0.1-0.1L16.2,59l0.1-0.1l-0.2-0.1l0.1-0.1
			l-0.2-0.1l0.1-0.1l-0.2-0.1l0.1-0.1l-0.2-0.1l0.1-0.1L16,58l0.1-0.1L16,57.8l0.1-0.1L16,57.6l0.1-0.1l-0.2-0.1l0.1-0.1l-0.2-0.1
			l0.1-0.1l-0.2-0.1l0.1-0.1l-0.2-0.1l0.1-0.1l-0.2-0.1l0.1-0.1l-0.2-0.1l0.1-0.1l-0.2-0.1l0.1-0.1l-0.2-0.1l0.1-0.1l-0.2-0.1
			l0.1-0.1l-0.2-0.1l0.1-0.1l-0.2-0.1l0.1-0.1L15.6,55l0.1-0.1l-0.2-0.1l0.1-0.1l-0.2-0.1l0.1-0.1l-0.2-0.1l0.1-0.1l-0.2-0.1
			l0.1-0.1L15.4,54l0.1-0.1l-0.2-0.1l0.1-0.1l-0.2-0.1l0.1-0.1l-0.2-0.1l0.1-0.1l-0.2-0.1l0.1-0.1l-0.2-0.1l0.1-0.1l-0.2-0.1
			l0.1-0.1l-0.2-0.1l0.1-0.1l-0.2-0.1l0.1-0.1l-0.2-0.1l0.1-0.1l-0.2-0.1l0.1-0.1l-0.2-0.1l0.1-0.1L15,51.5l0.1-0.1L15,51.2l0.1-0.1
			L15,51l0.1-0.1l-0.2-0.1l0.1-0.1l-0.2-0.1l0.1-0.1l-0.2-0.1l0.1-0.1l-0.2-0.1l0.1-0.1L14.8,50l0.1-0.1l-0.2-0.1l0.1-0.1l-0.2-0.1
			l0.1-0.1l-0.2-0.1l0.1-0.1l-0.2-0.1l0.1-0.1l-0.2-0.1l0.1-0.1l-0.2-0.1l0.1-0.1l-0.2-0.1l0.1-0.1l-0.2-0.1l0.1-0.1l-0.2-0.1
			l0.1-0.1l-0.2-0.1l0.1-0.1l-0.2-0.1l0.1-0.1l-0.2-0.1l0.1-0.1l-0.2-0.1l0.1-0.1L14.4,47l0.1-0.1l-0.2-0.1l0.1-0.1l-0.2-0.1
			l0.1-0.1l-0.2-0.1l0.1-0.1l-0.2-0.1l0.1-0.1L14.2,46l0.1-0.1l-0.2-0.1l0.1-0.1l-0.2-0.1l0.1-0.1l-0.2-0.1l0.1-0.1l-0.2-0.1
			l0.1-0.1L14,44.9l0.1-0.1L14,44.7l0.1-0.1L14,44.5l0.1-0.1l-0.2-0.1l0.1-0.1l-0.2-0.1l0.1-0.1l-0.2-0.1l0.1-0.1l-0.2-0.1l0.1-0.1
			l-0.2-0.1l0.1-0.1l-0.2-0.1l0.1-0.1l-0.2-0.1l0.1-0.1l-0.2-0.1l0.1-0.1l-0.2-0.1l0.1-0.1l-0.2-0.1l0.1-0.1l-0.2-0.1l0.1-0.1
			L13.6,42l0.1-0.1l-0.2-0.1l0.1-0.1l-0.2-0.1l0.1-0.1l-0.2-0.1l0.1-0.1l-0.2-0.1l0.1-0.1L13.4,41l0.1-0.1l-0.2-0.1l0.1-0.1
			l-0.2-0.1l0.1-0.1l-0.2-0.1l0.1-0.1l-0.2-0.1l0.1-0.1l-0.2-0.1l0.1-0.1l-0.2-0.1l0.1-0.1l-0.2-0.1l0.1-0.1l-0.2-0.1l0.1-0.1
			l-0.2-0.1l0.1-0.1l-0.2-0.1l0.1-0.1l-0.2-0.1l0.1-0.1l-0.2-0.1l0.1-0.1L13,38.2l0.1-0.1L13,38l0.1-0.1L13,37.8l0.1-0.1l-0.2-0.1
			l0.1-0.1l-0.2-0.1l0.1-0.1l-0.2-0.1l0.1-0.1L12.8,37l0.1-0.1l-0.2-0.1l0.1-0.1l-0.2-0.1l0.1-0.1l-0.2-0.1l0.1-0.1l-0.2-0.1
			l0.1-0.1l-0.2-0.1l0.1-0.1l-0.2-0.1l0.1-0.1l-0.2-0.1l0.1-0.1l-0.2-0.1l0.1-0.1L12.5,35l2.8-2.6l0.1,0.4l0,0.2l0.1,0.8l0.1,0.6
			l0.5,2.9l0.2,1.3l0,0l0.2,1.3l0.1,0.4l0.2,1.3l0,0L17,43l0.2,1.3l0.1,0.4l0.2,1.3l0.1,0.4l0.1,0.4l0.1,0.4l0.4,2.3l0.2,1.3
			l0.1,0.6l0.1,0.6l0.2,1.3l0.1,0.4l0.1,0.8l0.1,0.4l0,0l0.1,0.8l0.1,0.4l0,0l0.2,1l0,0.2l0.2,1.1l0,0.2l0.1,0.4l0,0.2l0.1,0.4
			l0,0.2l0.1,0.4l0.1,0.6l0.1,0.4l0,0.1C18.7,61.1,17.6,60.6,16.5,60z M16.1,20.6l0.1,0.2l0,0l0.1,0.2l0,0l0.1,0.2l0,0l0.1,0.2l0,0
			l0.1,0.2l0,0l0.1,0.2l0,0l0.1,0.2l0,0l0.1,0.2l0,0l0.1,0.2l0,0l0.1,0.2l0,0l0.1,0.2l0,0l0.1,0.2l0,0l0.1,0.2l0,0l0.1,0.2l0,0
			l0.1,0.2l0,0l0.1,0.2l0,0l0.1,0.2l0,0l0.1,0.2l0,0l0.1,0.2l0,0l0.1,0.2l0,0l0.1,0.2l0,0l0.1,0.2l0,0l0.1,0.2l0,0l0.1,0.2l0,0
			l0.1,0.2l0,0L17,26l0,0l0.1,0.2l0,0l0.1,0.2l0,0l0.1,0.2l0,0l0.1,0.2l0,0l0.1,0.2l-0.1,0l0.1,0.2l0,0l0.1,0.2l0,0l0.1,0.2l0,0
			l0.1,0.2l0,0l0.1,0.2l0,0l0.1,0.2l0,0l0.1,0.2l0,0l0.1,0.2l0,0l0.1,0.2l0,0l0.1,0.2l0,0l0.1,0.2l0,0l0.1,0.2l0,0l0.1,0.2l0,0
			l0.1,0.2l-0.1,0l0.1,0.2l0,0l0.1,0.2l0,0l0.1,0.2l0,0l0.1,0.2l0,0l0.1,0.2l0,0l0.1,0.2l0,0l0.1,0.2l0,0l0.1,0.2l0,0l0.1,0.2
			l-0.1,0l0.1,0.2l0,0l0.1,0.2l0,0l0.1,0.2l0,0l0.1,0.2l0,0l0.1,0.2l0,0l0.1,0.2l0,0l0.1,0.2l0,0l0.1,0.2l0,0l0.1,0.2l0,0l0.1,0.2
			l0,0l0.1,0.2l0,0l0.1,0.2l0,0l0.1,0.2l0,0l0.1,0.2l0,0l0.1,0.2l0,0l0.1,0.2l0,0l0.1,0.2l0,0l0.1,0.2l-0.1,0l0.1,0.2l0,0l0.1,0.2
			l0,0l0.1,0.2l0,0l0.1,0.2l0,0l0.1,0.2l0,0l0.1,0.2l0,0l0.1,0.2l0,0l0.1,0.2l0,0l0.1,0.2l0,0l0.1,0.2l0,0l0.1,0.2l-0.1,0l0.1,0.2
			l0,0l0.1,0.2l0,0l0.1,0.2l0,0l0.1,0.2l0,0l0.1,0.2l0,0l0.1,0.2l0,0l0.1,0.2l0,0l0.1,0.2l0,0l0.1,0.2l0,0l0.1,0.2l0,0l0.1,0.2l0,0
			l0.1,0.2l0,0l0.1,0.2l0,0l0.1,0.2l0,0l0.1,0.2l0,0l0.1,0.2l-0.1,0l0.1,0.2l-0.1,0l0.1,0.2l0,0l0.1,0.2l0,0l0.1,0.2l0,0l0.1,0.2
			l0,0l0.1,0.2l0,0l0.1,0.2l0,0l0.1,0.2l0,0l0.1,0.2l0,0l0.1,0.2l0,0l0.1,0.2l0,0l0.1,0.2l0,0l0.1,0.2l0,0l0.1,0.2l0,0l0.1,0.2l0,0
			l0.1,0.2l0,0l0.1,0.2l0,0l0.1,0.2l0,0l0.1,0.2l0,0l0.1,0.2l0,0l0.1,0.2l0,0l0.1,0.2l0,0l0.1,0.2l0,0l0.1,0.2l0,0l0.1,0.2l0,0
			l0.1,0.2l0,0l0.1,0.2l0,0l0.1,0.2l0,0l0.1,0.2l0,0l0.1,0.2l0,0l0,0l0,0.1l0.1,0l0,0l0,0l0,0l0,0l0,0.1l0,0.1l0,0l0,0l0,0l0,0
			l0,0.1l0,0.1l0,0l0,0l0,0l0,0l0,0.1l0,0.1l0,0l0,0l0,0l0,0l0,0.1l0,0.1l0,0l0,0l0,0l0,0l0,0.1l0,0.1l0,0l0,0l0,0l0,0l0,0.1l0,0.1
			l0,0l0,0l0,0l0,0l0,0.1l0,0.1l0,0l0,0l0,0l0,0l0,0.1l0,0.1l0,0l0,0l0,0l0,0l0,0.1l0,0.1l0,0l0,0l0,0l0,0l0,0.1l0,0.1l0,0l0,0l0,0
			l0,0l0,0.1l0,0.1l0,0l0,0l0,0l0,0l0,0.1l0,0.1l0,0l0,0l0,0l0,0l0,0.1l0,0.1l0,0l0,0l0,0l0,0l0,0.1l0,0.1l0,0l0,0l0,0l0,0l0,0.1
			l0,0.1l0,0l0,0l0,0l0,0l0,0.1l0,0.1l0,0l0,0l0,0l0,0l0,0.1l0,0.1l0,0l0,0l0,0l0,0l0,0.1l0,0.1l0,0l0,0l0,0l0,0l0,0.1l0,0.1l0,0
			l0,0l0,0l0,0l0,0.1l0,0.1l0,0l0,0l0,0l0,0l0,0.1l0,0.1l0,0l0,0l0,0l0,0l0,0.1l0,0.1l0,0l0,0l0,0l0,0l0,0.1l0,0.1l0,0l0,0l0,0l0,0
			l0,0.1l0,0.1l0,0l0,0l0,0l0,0l0,0.1l0,0.1l0,0l0,0l0,0l0,0l0,0.1l0,0.1l0,0l0,0l0,0l0,0l0,0.1l0,0.1l0,0l0,0l0,0l0,0l0,0.1l0,0.1
			l0,0l0,0l0,0l0,0l0,0.1l0,0.1l0,0l0,0l0,0l0,0l0,0.1l0,0.1l0,0l0,0l0,0l0,0l0,0.1l0,0.1l0,0l0,0l0,0l0,0l0,0.1l0,0.1l0,0l0,0l0,0
			l0,0l0,0.1l0,0.1l0,0l0,0l0,0l0,0l0,0.1l0,0.1l0,0l0,0l0,0l0,0l0,0.1l0,0.1l0,0l0,0l0,0l0,0l0,0.1l0,0.1l0,0l0,0l0,0l0,0l0,0.1
			l0,0.1l0,0l0,0l0,0l0,0l0,0.1l0,0.1l0,0l0,0l0,0l0,0l0,0.1l0,0.1l0,0l0,0l0,0l0,0l0,0.1l0,0.1l0,0l0,0l0,0l0,0l0,0.1l0,0.1l0,0
			l0,0l0,0l0,0l0,0.1l0,0.1l0,0l0,0l0,0l0,0l0,0.1l0,0.1l0,0l0,0l0,0l0,0l0,0.1l0,0.1l0,0l0,0l0,0l0,0l0,0.1l0,0.1l0,0l0,0l0,0l0,0
			l0,0.1l0,0.1l0,0l0,0l0,0l0,0l0,0.1l0,0.1l0,0l0,0l0,0l0,0l0,0.1l0,0.1l0,0l0,0l0,0l0,0l0,0.1l0,0.1l0,0l0,0l0,0l0,0l0,0.1l0,0.1
			l0,0l0,0l0,0l0,0l0,0.1l0,0.1l0,0l0,0l0,0l0,0l0,0.1l0,0.1l0,0l0,0l0,0l0,0l0,0.1l0,0.1l0,0l0,0l0,0l0,0l0,0.1l0,0.1l0,0l0,0l0,0
			l0,0l0,0.1l0,0.1l0,0l0,0l0,0l0,0l0,0.1l0,0.1l0,0l0,0l0,0l0,0l0,0.1l0,0.1l0,0l0,0l0,0l0,0l0,0.1l0,0.1l0,0l0,0l0,0l0,0l0,0.1
			l0,0.1l0,0l0,0l0,0l0,0l0,0.1l0,0.1l0,0l0,0l0,0l0,0l0,0.1l0,0.1l0,0l0,0l0,0l0,0l0,0.1l0,0.1l0,0l0,0l0,0l0,0l0,0.1l0,0.1l0,0
			l0,0l0,0l0,0l0,0.1l0,0.1l0,0l0,0l0,0l0,0l0,0.1l0,0.1l0,0l0,0l0,0l0,0l0,0.1l0,0.1l0,0l0,0l0,0l0,0l0,0.1l0,0.1l0,0l0,0l0,0l0,0
			l0,0.1l0,0.1l0,0l0,0l0,0l0,0l0,0.1l0,0.1l0,0l0,0l0,0l0,0l0,0.1c9.3,2.9,19.5,1.3,27.5-4.3l0,0l0-0.1l0,0l0,0l0,0l0,0l0-0.1
			l0-0.1l0,0l0,0l0,0l0,0l0-0.1l0-0.1l0,0l0,0l0,0l0,0l0-0.1l0-0.1l0,0l0,0l0,0l0,0l0-0.1l0-0.1l0,0l0,0l0,0l0,0l0-0.1l0-0.1l0,0
			l0,0l0,0l0,0l0-0.1l0-0.1l0,0l0,0l0,0l0,0l0-0.1l0-0.1l0,0l0,0l0,0l0,0l0-0.1l0-0.1l0,0l0,0l0,0l0,0l0-0.1l0-0.1l0,0l0,0l0,0l0,0
			l0-0.1l0-0.1l0,0l0,0l0,0l0,0l0-0.1l0-0.1l0,0l0,0l0,0l0,0l0-0.1l0-0.1l0,0l0,0l0,0l0,0l0-0.1l0-0.1l0,0l0,0l0,0l0,0l0-0.1l0-0.1
			l0,0l0,0l0,0l0,0l0-0.1l0-0.1l0,0l0,0l0,0l0,0l0-0.1l0-0.1l0,0l0,0l0,0l0,0l0-0.1l0-0.1l0,0l0,0l0,0l0,0l0-0.1l0-0.1l0,0l0,0l0,0
			l0,0l0-0.1l0-0.1l0,0l0,0l0,0l0,0l0-0.1l0-0.1l0,0l0,0l0,0l0,0l0-0.1l0-0.1l0,0l0,0l0,0l0,0l0-0.1l0-0.1l0,0l0,0l0,0l0,0l0-0.1
			l0-0.1l0,0l0,0l0,0l0,0l0-0.1l0-0.1l0,0l0,0l0,0l0,0l0-0.1l0-0.1l0,0l0,0l0,0l0,0l0-0.1l0-0.1l0,0l0,0l0,0l0,0l0-0.1l0-0.1l0,0
			l0,0l0,0l0,0l0-0.1l0-0.1l0,0l0,0l0,0l0,0l0-0.1l0-0.1l0,0l0,0l0,0l0,0l0-0.1l0-0.1l0,0l0,0l0,0l0,0l0-0.1l0-0.1l0,0l0,0l0,0l0,0
			l0-0.1l0-0.1l0,0l0,0l0,0l0,0l0-0.1l0-0.1l0,0l0,0l0,0l0,0l0-0.1l0-0.1l0,0l0,0l0,0l0,0l0-0.1l0-0.1l0,0l0,0l0,0l0,0l0-0.1l0-0.1
			l0,0l0,0l0,0l0,0l0-0.1l0-0.1l0,0l0,0l0,0l0,0l0-0.1l0-0.1l0,0l0,0l0,0l0,0l0-0.1l0-0.1l0,0l0,0l0,0l0,0l0-0.1l0-0.1l0,0l0,0l0,0
			l0,0l0-0.1l0-0.1l0,0l0,0l0,0l0,0l0-0.1l0-0.1l0,0l0,0l0,0l0,0l0-0.1l0-0.1l0,0l0,0l0,0l0,0l0-0.1l0-0.1l0,0l0,0l0,0l0,0l0-0.1
			l0-0.1l0,0l0,0l0,0l0,0l0-0.1l0-0.1l0,0l0,0l0,0l0,0l0-0.1l0-0.1l0,0l0,0l0,0l0,0l0-0.1l0-0.1l0,0l0,0l0,0l0,0l0-0.1l0-0.1l0,0
			l0,0l0,0l0,0l0-0.1l0-0.1l0,0l0,0l0,0l0,0l0-0.1l0-0.1l0,0l0,0l0,0l0,0l0-0.1l0-0.1l0,0l0,0l0,0l0,0l0-0.1l0-0.1l0,0l0,0l0,0l0,0
			l0-0.1l0-0.1l0,0l0,0l0,0l0,0l0-0.1l0-0.1l0,0l0,0l0,0l0,0l0-0.1l0-0.1l0,0l0,0l0,0l0,0l0-0.1l0-0.1l0,0l0,0l0,0l0,0l0-0.1l0-0.1
			l0,0l0,0l0,0l0,0l0-0.1l0-0.1l0,0l0,0l0,0l0,0l0-0.1l0-0.1l0,0l0,0l0,0l0,0l0-0.1l0-0.1l0,0l0,0l0,0l0,0l0-0.1l0-0.1l0,0l0,0l0,0
			l0,0l0-0.1l0-0.1l0,0l0,0l0,0l0,0l0-0.1l0-0.1l0,0l0,0l0,0l0,0l0-0.1l0-0.1l0,0l0,0l0,0l0,0l0-0.1l0-0.1l0,0l0,0l0,0l0,0l0-0.1
			l0-0.1l0,0l0,0l0,0l0,0l0-0.1l0-0.1l0,0l0,0l0,0l0,0l0-0.1l0-0.1l0,0l0,0l0,0l0,0l0-0.1l0-0.1l0,0l0,0l0-0.2l0,0l0-0.2l0,0l0-0.2
			l0,0l0-0.2l0,0l0-0.2l0,0l0-0.2l0,0l0-0.2l0,0l0-0.2l0,0l0-0.2l0,0l0-0.2l0,0l0-0.2l0,0l0-0.2l0,0l0-0.2l0,0l0-0.2l0,0l0-0.2l0,0
			l0-0.2l0,0l0-0.2l0,0l0-0.2l0,0l0-0.2l0,0l0-0.2l0,0l0-0.2l0,0l0-0.2l0,0l0-0.2l0,0l0-0.2l0,0l0-0.2l0,0l0-0.2l0,0l0-0.2l0,0
			l0-0.2l0,0l0-0.2l0,0l0-0.2l0,0l0-0.2l0,0l0-0.2l0,0l0-0.2l0,0l0-0.2l0,0l0-0.2l0,0l0-0.2l0,0l0-0.2l0,0l0-0.2l0,0l0-0.2l0,0
			l0-0.2l0,0l0-0.2l0,0l0-0.2l0,0l0-0.2l0,0l0-0.2l0,0l0-0.2l0,0l0-0.2l0,0l0-0.2l0,0l0-0.2l0,0l0-0.2l0,0l0-0.2l0,0l0-0.2l0,0
			l0-0.2l0,0l0-0.2l0,0l0-0.2l0,0l0-0.2l0,0l0-0.2l0,0l0-0.2l0,0l0-0.2l0,0l0-0.2l0,0l0-0.2l0,0l0-0.2l0,0l0-0.2l0,0l0-0.2l0,0
			l0-0.2l0,0l0-0.2l0,0l0-0.2l0,0l0-0.2l0,0l0-0.2l0,0l0-0.2l0,0l0-0.2l0,0l0-0.2l0,0l0-0.2l0,0l0-0.2l0,0l0-0.2l0,0l0-0.2l0,0
			l0-0.2l0,0l0-0.2l0,0l0-0.2l0,0l0-0.2l0,0l0-0.2l0,0l0-0.2l0,0l0-0.2l0,0l0-0.2l0,0l0-0.2l0,0l0.1-0.2l0,0l0-0.2l0,0l0-0.2l0,0
			l0-0.2l0,0l0-0.2l0,0l0-0.2l0,0l0-0.2l0,0l0-0.2l0,0l0-0.2l0,0l0-0.2l0,0l0-0.2l0,0l0-0.2l0,0l0-0.2l0,0l0-0.2l0,0l0-0.2l0,0
			l0-0.2l0,0l0-0.2l0,0l0-0.2l0,0l0-0.2l0,0l0-0.2l0,0l0-0.2l0,0l0-0.2l0,0l0-0.2l0,0l0-0.2l0,0l0-0.2l0,0l0-0.2l0,0l0-0.2l0,0
			l0-0.2l0,0l0-0.2l0,0l0-0.2l0,0l0-0.2l0,0l0-0.2l0,0l0-0.2l0,0l0-0.2l0,0l0-0.2l0,0l0-0.2l0,0l0-0.2l0,0l0-0.2l0,0l0-0.2l0,0
			l0-0.2l0,0l0-0.2l0,0l0-0.2l0,0l0-0.2l0,0l0-0.2l0,0l0-0.2l0,0l0-0.2L40,17.4l0.2,0.1l-0.2,0.1l0.2,0.1l-0.2,0.1l0.2,0.1L40.1,18
			l0.2,0.1l-0.2,0.1l0.2,0.1l-0.2,0.1l0.2,0.1l-0.2,0.1l0.2,0.1l-0.2,0.1l0.2,0.1l-0.2,0.1l0.2,0.1l-0.2,0.1l0.2,0.1l-0.2,0.1
			l0.2,0.1l-0.2,0.1l0.2,0.1l-0.2,0.1l0.2,0.1l-0.2,0.1l0.2,0.1l-0.2,0.1l0.2,0.1l-0.2,0.1l0.2,0.1l-0.2,0.1l0.2,0.1L40.6,21
			l0.2,0.1l-0.2,0.1l0.2,0.1l-0.2,0.1l0.2,0.1l-0.2,0.1l0.2,0.1l-0.2,0.1l0.2,0.1L40.8,22l0.2,0.1l-0.2,0.1l0.2,0.1l-0.2,0.1
			l0.2,0.1l-0.2,0.1l0.2,0.2l-0.1,0c-0.4-0.4-0.9-0.8-1.4-1.2c-2.3-1.7-4.9-2.4-7.5-2.5L32,19.1l0.1,0L32,18.9l0.1,0L32,18.7l0.1,0
			l-0.2-0.2l0.1,0l-0.2-0.2l0.1,0l-0.2-0.2l0.1,0l-0.2-0.2l0.1,0l-0.2-0.2l0.1,0l-0.2-0.2l0.1,0l-0.2-0.2l0.1,0L31.7,17l0.1,0
			l-0.2-0.2l0.1,0l-0.2-0.2l0.1,0l-0.2-0.2l0.1,0l-0.2-0.2l0.1,0L31.5,16l0.1,0l-0.2-0.2l0.1,0l-0.2-0.2l0.1,0l-0.2-0.2l0.1,0
			L29,12.5L27.4,16l0.1,0l-0.1,0.2l0.1,0l-0.1,0.2l0.1,0l-0.1,0.2l0.1,0l-0.1,0.2l0.1,0L27.5,17l0.1,0l-0.1,0.2l0.1,0l-0.1,0.2
			l0.1,0l-0.1,0.2l0.1,0l-0.1,0.2l0.1,0l-0.1,0.2l0.1,0l-0.1,0.2l0.1,0l-0.1,0.2l0.1,0l-0.1,0.2l0.1,0l-0.1,0.2l0.1,0l-0.1,0.2
			l0.1,0l-0.1,0.2l0.1,0l-0.1,0.2l0.1,0l-0.1,0.2l0.1,0l0,0.1c-2.5,0.8-4.7,2.4-6.4,4.6c-0.4,0.5-0.7,1-1,1.5l-0.1,0l0.1-0.2l-0.2,0
			l0.2-0.2l-0.2,0l0.1-0.2l-0.2,0l0.1-0.2l-0.2,0l0.2-0.2l-0.2,0l0.1-0.2l-0.2,0l0.1-0.2l-0.2,0l0.1-0.2l-0.2,0l0.1-0.2l-0.2,0
			l0.1-0.2l-0.2,0l0.1-0.2l-0.2,0l0.1-0.2l-0.2,0l0.1-0.2l-0.2,0l0.1-0.2l-0.2,0l0.1-0.2l-0.2,0l0.1-0.2l-0.2,0l0.1-0.2l-0.2,0
			l0.2-0.2l-0.2,0l0.1-0.2L20,22l0.1-0.2l-0.2,0l0.1-0.2l-0.2,0l0.1-0.2l-0.2,0l0.1-0.2l-0.2,0l0.1-0.2l-0.2,0l0.1-0.2l-0.2,0
			l0.1-0.2l-3.8-0.2L16.1,20.6L16.1,20.6z M53.2,40.9l0.1-0.1l-0.2-0.1l0.1-0.1l-0.2-0.1l0.1-0.1l-0.2-0.1l0.1-0.1L53,40.1l0.1-0.1
			L53,39.9l0.1-0.1L53,39.7l0.1-0.1L53,39.4l0.1-0.1l-0.2-0.1l0.1-0.1L52.9,39l0.1-0.1l-0.2-0.1l0.1-0.1l-0.2-0.1l0.1-0.1l-0.2-0.1
			l0.1-0.1l-0.2-0.1l0.1-0.1L52.7,38l0.1-0.1l-0.2-0.1l0.1-0.1l-0.2-0.1l0.1-0.1l-0.2-0.1l0.1-0.1l-0.2-0.1l0.1-0.1l-0.2-0.1
			l0.1-0.1l-0.2-0.1l0.1-0.1l-0.2-0.1l0.1-0.1l-0.2-0.1l0.1-0.1l-0.2-0.1l0.1-0.1l-0.2-0.1l0.1-0.2l-0.2-0.1l0.1-0.1l-0.2-0.1
			l0.1-0.1l-0.2-0.1l0.1-0.1L52.3,35l0.1-0.1l-0.2-0.1l0.1-0.1l-0.2-0.1l0.1-0.1l-0.2-0.1l0.1-0.1l-0.2-0.1l0.1-0.1L52.1,34l0.1-0.1
			l-0.2-0.1l0.1-0.1L52,33.5l0.1-0.1L52,33.3l0.1-0.1L52,33.1l0.1-0.1l-0.2-0.1l0.1-0.1l-0.2-0.1l0.1-0.1l-0.2-0.1l0.1-0.1l-0.2-0.1
			l0.1-0.1l-0.2-0.1L52,32l-0.2-0.1l0.1-0.1l-0.2-0.1l0.1-0.1l-0.2-0.1l0.1-0.1l-0.2-0.1l0.1-0.1L51.6,31l0.1-0.1l-0.2-0.1l0.1-0.1
			l-0.2-0.1l0.1-0.1l-0.2-0.1l0.1-0.1l-0.2-0.1l0.1-0.1L51.5,30l0.1-0.1l-0.2-0.1l0.1-0.1l-0.2-0.1l0.1-0.1l-0.2-0.1l0.1-0.1
			l-0.2-0.1l0.1-0.1L48,27.4l0.1,0.4l0,0.2l0.1,0.8l0.1,0.6l0.2,1.1l0,0.2l0.2,1.1l0.2,1.3l0.1,0.6l0.1,0.6l0.7,4.2l0.2,1.3l0.2,1.3
			l0,0l0.1,0.4l0.2,1.3l0.1,0.5l0.2,1.4l0,0l0,0l0.1,0.5l0.1,0.7l0,0l0,0l0.2,1.3l0.2,1.3l0.1,0.7l0.1,0.7l0.2,1.3l0.1,0.6l0.2,1.3
			l0.5,3l0.1,0.5c0.9-0.8,1.8-1.6,2.7-2.5l0,0l0.1-0.1l-0.2-0.1l0.1-0.1l-0.2-0.1l0.1-0.1l-0.2-0.1l0.1-0.1l-0.2-0.1l0.1-0.1
			L55,52.9l0.1-0.1L55,52.7l0.1-0.1L55,52.5l0.1-0.1l-0.2-0.1l0.1-0.1l-0.2-0.1L55,52l-0.2-0.1l0.1-0.1l-0.2-0.1l0.1-0.1l-0.2-0.1
			l0.1-0.1l-0.2-0.1l0.1-0.1L54.7,51l0.1-0.1l-0.2-0.1l0.1-0.1l-0.2-0.1l0.1-0.1l-0.2-0.1l0.1-0.1l-0.2-0.1l0.1-0.1L54.6,50l0.1-0.1
			l-0.2-0.1l0.1-0.1l-0.2-0.1l0.1-0.1l-0.2-0.1l0.1-0.1l-0.2-0.1l0.1-0.1l-0.2-0.1l0.1-0.1l-0.2-0.1l0.1-0.1l-0.2-0.1l0.1-0.1
			l-0.2-0.1l0.1-0.1l-0.2-0.1l0.1-0.1l-0.2-0.1l0.1-0.1l-0.2-0.1l0.1-0.1l-0.2-0.1l0.1-0.1l-0.2-0.1l0.1-0.1L54.1,47l0.1-0.1
			l-0.2-0.1l0.1-0.1l-0.2-0.1l0.1-0.1L54,46.4l0.1-0.1L54,46.2l0.1-0.1L54,46l0.1-0.1l-0.2-0.1l0.1-0.1l-0.2-0.1l0.1-0.1l-0.2-0.1
			l0.1-0.1l-0.2-0.1L54,45l-0.2-0.1l0.1-0.1l-0.2-0.1l0.1-0.1l-0.2-0.1l0.1-0.1l-0.2-0.1l0.1-0.1l-0.2-0.1l0.1-0.1l-0.2-0.1l0.1-0.1
			l-0.2-0.1l0.1-0.1l-0.2-0.1l0.1-0.1l-0.2-0.1l0.1-0.1L53.5,43l0.1-0.1l-0.2-0.1l0.1-0.1l-0.2-0.1l0.1-0.1l-0.2-0.1l0.1-0.1
			l-0.2-0.1l0.1-0.1L53.3,42l0.1-0.1l-0.2-0.1l0.1-0.1l-0.2-0.1l0.1-0.1l-0.2-0.1l0.1-0.1l-0.2-0.1l0.1-0.1L53.2,40.9z"/>
	</g>
	<g>
		<polygon class="st5" points="31.6,15.3 29,12.5 27.4,16 		"/>
		<polygon class="st5" points="20.3,47.9 22.2,45.3 20.5,44.1 		"/>
		<polygon class="st5" points="17.4,24 19.9,20.5 16.1,20.3 		"/>
		<polygon class="st5" points="43.7,16.1 40,17.4 41.8,18.7 		"/>
		<polygon class="st5" points="12.5,35 16,36.6 15.3,32.4 		"/>
		<path class="st5" d="M21.7,24.4c-4.2,5.7-2.9,13.7,2.8,17.9l15.1-20.7C33.9,17.5,25.8,18.7,21.7,24.4z"/>
		<path class="st5" d="M43,25.4L43,25.4c1,3.3-0.1,8.1-3.2,12.3c-3.1,4.2-7.3,6.7-10.7,6.7l0,0.1c4.9,1.1,10.1-0.6,13.3-4.9
			C45.5,35.3,45.5,29.7,43,25.4z"/>
		<polyline class="st5" points="20.6,46.1 20.6,45.1 21.4,45.8 22.2,45.3 22,46.3 22.9,46.8 21.9,47.1 21.9,48.1 21.2,47.4 
			20.3,47.9 20.5,46.9 		"/>
		<polygon class="st5" points="47.3,40.6 47.1,41.6 48,42.1 47,42.4 47,43.4 46.3,42.7 45.4,43.2 45.6,42.2 44.8,41.7 45.7,41.4 
			45.7,40.4 46.4,41.1 		"/>
		<polygon class="st5" points="51.5,27 51.3,28 52.2,28.5 51.2,28.8 51.2,29.8 50.5,29.1 49.6,29.6 49.8,28.6 49,28.1 49.9,27.8 
			49.9,26.8 50.7,27.5 		"/>
		<polygon class="st5" points="36,48.2 35.8,49.2 36.6,49.7 35.7,50 35.7,51 35,50.3 34.1,50.8 34.3,49.8 33.4,49.3 34.4,49 
			34.4,48 35.1,48.7 		"/>
		<polyline class="st5" points="42.8,16.6 43.6,16.1 43.4,17.1 44.3,17.6 43.3,17.9 43.3,18.9 42.6,18.2 41.7,18.7 41.9,17.7 		"/>
		<path class="st5" d="M42,16.9"/>
	</g>
</g>
</svg>
